# xmcd
#
# Track frame offsets: 
#        150
#        17357
#        36356
#        43817
#        61956
#        76694
#        94115
#        115048
#        139624
#        162635
#        179002
#        188965
#
# Disc length: 2725 seconds
#
# Revision: 2
# Processed by: cddbd v1.5.2PL0 Copyright (c) Steve Scherf et al.
# Submitted via: ExactAudioCopyFreeDBPlugin 1.0
#
DISCID=9b0aa30c
DTITLE=ズクナシ - ただいま
DYEAR=2015
DGENRE=
TTITLE0=ほろよい橋
TTITLE1=緑の町
TTITLE2=KiraKira
TTITLE3=Keep on movin'
TTITLE4=ただいま おかえり
TTITLE5=映画館
TTITLE6=青
TTITLE7=歩いている
TTITLE8=ウメジャム
TTITLE9=キミニラブ
TTITLE10=ゆうらゆらり
TTITLE11=O型の女
EXTD=Powerd by gracenote music web API
EXTT0=
EXTT1=
EXTT2=
EXTT3=
EXTT4=
EXTT5=
EXTT6=
EXTT7=
EXTT8=
EXTT9=
EXTT10=
EXTT11=
PLAYORDER=
